# Blender v2.81 (sub 16) OBJ File: 'game.blend'
# www.blender.org
mtllib cone32.mtl
v -1.000000 -0.000000 -1.500000
v 0.500000 0.866025 -1.500000
v 0.500000 -0.866025 -1.500000
v 2.500000 4.330127 1.499999
v -5.000000 0.000000 1.500000
v 2.500000 -4.330126 1.500001
vn -0.4747 0.5930 -0.6504
vn -0.5110 -0.0279 -0.8592
vn 0.2140 0.4754 -0.8534
vn 0.8072 0.3283 -0.4904
vn 0.3047 -0.4230 -0.8534
vn -0.1193 -0.8633 -0.4904
usemtl Default_OBJ.001
s 1
f 1//1 5//2 4//3
f 1//1 4//3 2//4
f 2//4 4//3 6//5
f 2//4 6//5 3//6
f 3//6 6//5 5//2
f 3//6 5//2 1//1
