# Blender v2.81 (sub 16) OBJ File: 'game.blend'
# www.blender.org
mtllib cone31.mtl
v 2.217935 0.249146 -4.788719
v -1.782065 0.249146 -1.788719
v 5.717935 4.579273 -1.788721
v 3.717935 1.115171 -4.788719
v 5.717935 -4.080979 -1.788717
v 3.717935 -0.616879 -4.788719
vn -0.4747 0.5930 -0.6504
vn -0.5110 -0.0279 -0.8592
vn 0.2140 0.4754 -0.8534
vn 0.8072 0.3283 -0.4904
vn 0.3047 -0.4230 -0.8534
vn -0.1193 -0.8633 -0.4904
usemtl Default_OBJ.001
s 1
f 1//1 2//2 3//3
f 1//1 3//3 4//4
f 4//4 3//3 5//5
f 4//4 5//5 6//6
f 6//6 5//5 2//2
f 6//6 2//2 1//1
