####
#
# OBJ File Generated by Meshlab
#
####
# Object cone6.obj
#
# Vertices: 14
# Faces: 24
#
####
vn 0.000000 -1.000000 0.000000
v 0.000000 -2.000000 0.000000
vn 0.000000 1.000000 0.000000
v 0.000000 2.000000 0.000000
vn 0.478913 -0.862044 0.165900
v 3.000000 -2.000000 0.000000
vn 0.095783 -0.862044 0.497701
v 1.500000 -2.000000 2.598076
vn -0.383130 -0.862044 0.331801
v -1.500000 -2.000000 2.598076
vn -0.478913 -0.862044 -0.165900
v -3.000000 -2.000000 0.000000
vn -0.095783 -0.862044 -0.497701
v -1.500000 -2.000000 -2.598076
vn 0.383130 -0.862044 -0.331801
v 1.500000 -2.000000 -2.598076
vn 0.916515 0.392792 -0.075593
v 9.000000 2.000000 0.000000
vn 0.523723 0.392792 0.755929
v 4.500000 2.000000 7.794229
vn -0.392792 0.392792 0.831522
v -4.500000 2.000000 7.794229
vn -0.916515 0.392792 0.075593
v -9.000000 2.000000 0.000000
vn -0.523723 0.392792 -0.755929
v -4.500000 2.000000 -7.794229
vn 0.392792 0.392792 -0.831522
v 4.500000 2.000000 -7.794229
# 14 vertices, 0 vertices normals

f 1//1 3//3 4//4
f 1//1 4//4 5//5
f 1//1 5//5 6//6
f 1//1 6//6 7//7
f 1//1 7//7 8//8
f 1//1 8//8 3//3
f 2//2 10//10 9//9
f 2//2 11//11 10//10
f 2//2 12//12 11//11
f 2//2 13//13 12//12
f 2//2 14//14 13//13
f 2//2 9//9 14//14
f 3//3 9//9 10//10
f 3//3 10//10 4//4
f 4//4 10//10 11//11
f 4//4 11//11 5//5
f 5//5 11//11 12//12
f 5//5 12//12 6//6
f 6//6 12//12 13//13
f 6//6 13//13 7//7
f 7//7 13//13 14//14
f 7//7 14//14 8//8
f 8//8 14//14 9//9
f 8//8 9//9 3//3
# 24 faces, 0 coords texture

# End of File
