# Blender v2.81 (sub 16) OBJ File: 'game2.blend'
# www.blender.org
mtllib gamecone6.mtl
v -3.000000 -0.000000 -2.000000
v -1.500000 2.598076 -2.000000
v 1.500000 2.598076 -2.000000
v 3.000000 -0.000000 -2.000000
v 1.500000 -2.598076 -2.000000
v -1.500000 -2.598076 -2.000000
v -4.500000 7.794230 1.999999
v -9.000000 0.000000 2.000000
v 4.500000 7.794230 1.999999
v 9.000000 0.000000 2.000000
v 4.500000 -7.794229 2.000001
v -4.500000 -7.794229 2.000001
vn -0.5894 0.1930 -0.7844
vn -0.4896 -0.1071 -0.8654
vn -0.1589 0.4530 -0.8772
vn -0.2427 0.6467 -0.7231
vn 0.3128 0.3641 -0.8772
vn 0.4387 0.5335 -0.7231
vn 0.4718 -0.0889 -0.8772
vn 0.6814 -0.1131 -0.7231
vn 0.1589 -0.4530 -0.8772
vn 0.2427 -0.6467 -0.7231
vn -0.3128 -0.3641 -0.8772
vn -0.4387 -0.5336 -0.7231
usemtl Default_OBJ.002
s 1
f 1//1 8//2 7//3
f 1//1 7//3 2//4
f 2//4 7//3 9//5
f 2//4 9//5 3//6
f 3//6 9//5 10//7
f 3//6 10//7 4//8
f 4//8 10//7 11//9
f 4//8 11//9 5//10
f 5//10 11//9 12//11
f 5//10 12//11 6//12
f 6//12 12//11 8//2
f 6//12 8//2 1//1
