# Blender v2.81 (sub 16) OBJ File: 'work.blend'
# www.blender.org
mtllib v_gripper.mtl
v -1.203434 -3.963610 -0.069721
v -1.203434 -3.963610 0.069721
v -1.203434 3.963610 0.069721
v -1.203434 3.963610 -0.069721
v -1.052423 3.963610 0.069721
v -1.052423 3.963610 -0.069721
v -1.052423 -3.963610 0.069721
v -1.052423 -3.963610 -0.069721
v 1.080805 -3.963610 -0.069721
v 1.080805 -3.963610 0.069721
v 1.080805 3.963610 0.069721
v 1.080805 3.963610 -0.069721
v 1.231816 3.963610 0.069721
v 1.231816 3.963610 -0.069721
v 1.231816 -3.963610 0.069721
v 1.231816 -3.963610 -0.069721
vt 0.375000 0.000000
vt 0.625000 0.000000
vt 0.625000 0.250000
vt 0.375000 0.250000
vt 0.625000 0.500000
vt 0.375000 0.500000
vt 0.625000 0.750000
vt 0.375000 0.750000
vt 0.625000 1.000000
vt 0.375000 1.000000
vt 0.125000 0.500000
vt 0.125000 0.750000
vt 0.875000 0.500000
vt 0.875000 0.750000
vt 0.375000 0.000000
vt 0.625000 0.000000
vt 0.625000 0.250000
vt 0.375000 0.250000
vt 0.625000 0.500000
vt 0.375000 0.500000
vt 0.625000 0.750000
vt 0.375000 0.750000
vt 0.625000 1.000000
vt 0.375000 1.000000
vt 0.125000 0.500000
vt 0.125000 0.750000
vt 0.875000 0.500000
vt 0.875000 0.750000
vn -1.0000 -0.0000 0.0000
vn 0.0000 1.0000 0.0000
vn 1.0000 0.0000 0.0000
vn 0.0000 -1.0000 0.0000
vn 0.0000 0.0000 -1.0000
vn 0.0000 0.0000 1.0000
usemtl None
s 1
f 1/1/1 2/2/1 3/3/1 4/4/1
f 4/4/2 3/3/2 5/5/2 6/6/2
f 6/6/3 5/5/3 7/7/3 8/8/3
f 8/8/4 7/7/4 2/9/4 1/10/4
f 4/11/5 6/6/5 8/8/5 1/12/5
f 5/5/6 3/13/6 2/14/6 7/7/6
usemtl None.001
f 9/15/1 10/16/1 11/17/1 12/18/1
f 12/18/2 11/17/2 13/19/2 14/20/2
f 14/20/3 13/19/3 15/21/3 16/22/3
f 16/22/4 15/21/4 10/23/4 9/24/4
f 12/25/5 14/20/5 16/22/5 9/26/5
f 13/19/6 11/27/6 10/28/6 15/21/6
