####
#
# OBJ File Generated by Meshlab
#
####
# Object cone4.obj
#
# Vertices: 10
# Faces: 16
#
####
vn 0.000000 -1.000000 0.000000
v 0.000000 -1.000000 0.000000
vn 0.000000 1.000000 0.000000
v 0.000000 1.000000 0.000000
vn 0.742781 -0.557086 0.371391
v 1.000000 -1.000000 0.000000
vn -0.371391 -0.557086 0.742781
v 0.000000 -1.000000 1.000000
vn -0.742781 -0.557086 -0.371391
v -1.000000 -1.000000 0.000000
vn 0.371391 -0.557086 -0.742781
v -0.000000 -1.000000 -1.000000
vn 0.940721 0.282216 -0.188144
v 2.000000 1.000000 0.000000
vn 0.188144 0.282216 0.940721
v 0.000000 1.000000 2.000000
vn -0.940721 0.282216 0.188144
v -2.000000 1.000000 0.000000
vn -0.188144 0.282216 -0.940721
v -0.000000 1.000000 -2.000000
# 10 vertices, 0 vertices normals

f 1//1 3//3 4//4
f 1//1 4//4 5//5
f 1//1 5//5 6//6
f 1//1 6//6 3//3
f 2//2 8//8 7//7
f 2//2 9//9 8//8
f 2//2 10//10 9//9
f 2//2 7//7 10//10
f 3//3 7//7 8//8
f 3//3 8//8 4//4
f 4//4 8//8 9//9
f 4//4 9//9 5//5
f 5//5 9//9 10//10
f 5//5 10//10 6//6
f 6//6 10//10 7//7
f 6//6 7//7 3//3
# 16 faces, 0 coords texture

# End of File
