####
#
# OBJ File Generated by Meshlab
#
####
# Object gamecone.obj
#
# Vertices: 8
# Faces: 12
#
####
vn 0.000000 -1.000000 0.000000
v 0.000000 -1.500000 0.000000
vn 0.000000 1.000000 0.000000
v 0.000000 1.500000 0.000000
vn 0.467707 -0.668153 0.578638
v 1.000000 -1.500000 0.000000
vn -0.734968 -0.668153 0.115728
v -0.500000 -1.500000 0.866025
vn 0.267261 -0.668153 -0.694365
v -0.500000 -1.500000 -0.866025
vn 0.972272 0.176777 -0.153093
v 5.000000 1.500000 0.000000
vn -0.353553 0.176777 0.918559
v -2.500000 1.500000 4.330127
vn -0.618718 0.176777 -0.765466
v -2.500000 1.500000 -4.330127
# 8 vertices, 0 vertices normals

f 1//1 3//3 4//4
f 1//1 4//4 5//5
f 1//1 5//5 3//3
f 2//2 7//7 6//6
f 2//2 8//8 7//7
f 2//2 6//6 8//8
f 3//3 6//6 7//7
f 3//3 7//7 4//4
f 4//4 7//7 8//8
f 4//4 8//8 5//5
f 5//5 8//8 6//6
f 5//5 6//6 3//3
# 12 faces, 0 coords texture

# End of File
