####
#
# OBJ File Generated by Meshlab
#
####
# Object gamecone4.obj
#
# Vertices: 10
# Faces: 16
#
####
vn 0.000000 -1.000000 0.000000
v 0.000000 -1.500000 0.000000
vn 0.000000 1.000000 0.000000
v 0.000000 1.500000 0.000000
vn 0.979958 -0.178174 0.089087
v 5.000000 -1.500000 0.000000
vn -0.089087 -0.178174 0.979958
v 0.000000 -1.500000 5.000000
vn -0.979958 -0.178174 -0.089087
v -5.000000 -1.500000 0.000000
vn 0.089087 -0.178174 -0.979958
v -0.000000 -1.500000 -5.000000
vn 0.530669 0.758098 -0.379049
v 1.000000 1.500000 0.000000
vn 0.379049 0.758098 0.530669
v 0.000000 1.500000 1.000000
vn -0.530669 0.758098 0.379049
v -1.000000 1.500000 0.000000
vn -0.379049 0.758098 -0.530669
v -0.000000 1.500000 -1.000000
# 10 vertices, 0 vertices normals

f 1//1 3//3 4//4
f 1//1 4//4 5//5
f 1//1 5//5 6//6
f 1//1 6//6 3//3
f 2//2 8//8 7//7
f 2//2 9//9 8//8
f 2//2 10//10 9//9
f 2//2 7//7 10//10
f 3//3 7//7 8//8
f 3//3 8//8 4//4
f 4//4 8//8 9//9
f 4//4 9//9 5//5
f 5//5 9//9 10//10
f 5//5 10//10 6//6
f 6//6 10//10 7//7
f 6//6 7//7 3//3
# 16 faces, 0 coords texture

# End of File
