<?xml version="1.0" encoding="UTF-8" standalone="no"?>
<!-- Created with Inkscape (http://www.inkscape.org/) -->

<svg
   xmlns:dc="http://purl.org/dc/elements/1.1/"
   xmlns:cc="http://creativecommons.org/ns#"
   xmlns:rdf="http://www.w3.org/1999/02/22-rdf-syntax-ns#"
   xmlns:svg="http://www.w3.org/2000/svg"
   xmlns="http://www.w3.org/2000/svg"
   xmlns:sodipodi="http://sodipodi.sourceforge.net/DTD/sodipodi-0.dtd"
   xmlns:inkscape="http://www.inkscape.org/namespaces/inkscape"
   version="1.1"
   width="792"
   height="612"
   viewBox="812 0 792 612"
   id="svg2"
   xml:space="preserve"
   inkscape:version="0.48.1 r9760"
   sodipodi:docname="dressp.svg"><sodipodi:namedview
   pagecolor="#ffffff"
   bordercolor="#666666"
   borderopacity="1"
   objecttolerance="10"
   gridtolerance="10"
   guidetolerance="10"
   inkscape:pageopacity="0"
   inkscape:pageshadow="2"
   inkscape:window-width="2560"
   inkscape:window-height="1542"
   id="namedview3000"
   showgrid="false"
   inkscape:zoom="1.1276736"
   inkscape:cx="683.26885"
   inkscape:cy="364.20722"
   inkscape:window-x="0"
   inkscape:window-y="26"
   inkscape:window-maximized="1"
   inkscape:current-layer="svg2" /><metadata
   id="metadata40"><rdf:RDF><cc:Work
       rdf:about=""><dc:format>image/svg+xml</dc:format><dc:type
         rdf:resource="http://purl.org/dc/dcmitype/StillImage" /><dc:title /></cc:Work></rdf:RDF></metadata><defs
   id="defs38" />
			<path
   d="m 433.665,476.29679 -2.168,56.113 1.844,53.435 38.001,-7.399 19.675,-3.829 30.362,1.624 21.288,1.862 21.914,2.78 25.45,2.659 39.292,7.405 6.724,-18.913 8.701,-10.284 36.727,-21.561 -14.284,-17.706 -20.273,-18.73 -8.527,-6.217 -8.187,-5.481 -31.896,-9.444 -28.992,-2.414 -24.668,0.257 -20.336,1.272 -28.004,1.578 -24.993,-2.399"
   id="path4"
   style="opacity:0.5;fill:#f9eb24" />
			<path
   d="m 433.665,466.264 -2.168,-56.114 1.844,-53.434 38.001,7.398 19.675,3.829 30.362,-1.624 21.288,-1.862 21.914,-2.779 25.45,-2.659 39.292,-7.406 6.724,18.913 8.701,10.285 36.727,21.56 -14.284,17.706 -20.273,18.731 -8.527,6.216 -8.187,5.481 -31.896,9.444 -28.992,2.414 -24.668,-0.257 -20.336,-1.272 -28.004,-1.577 -24.993,2.398"
   id="path6"
   style="opacity:0.5;fill:#f9eb24" />
		
		
		<path
   d="m 209.66197,459.27321 -6.835,-25.752 -0.273,-23.208 7.514,-48.451 11.73,-29.288 15.144,-22.937 26.037,-10.843 35.84,2.088 30.612,4.027 26.015,5.937 5.178,-19.018 5.723,-21.009 -32.518,-7.421 -33.322,-5.952 -27.119,-2.115 -20.408,0.63 -26.396,9.735 -10.341,4.901 -11.075,11.083 -13.749,18.568 -7.868,12.237 -4.66,12.45 -6.024,14.484 -2.586,11.201 -4.056,18.541 -4.38,21.534 -1.151,21.629 3.226,22.673 7.891,24.3 9.549,20.476 14.568,-9.877"
   id="path12"
   style="opacity:0.5;fill:#fec145" />
		<path
   d="m 101.33697,459.27321 6.836,-25.752 0.273,-23.208 -7.515,-48.451 -11.729003,-29.288 -15.144,-22.937 -26.038,-10.843 -35.839,2.088 -30.612,4.027 -26.015,5.937 -5.179,-19.018 -5.723,-21.009 32.518,-7.421 33.322,-5.952 27.119,-2.115 20.408,0.63 26.396,9.735 10.341,4.901 11.076003,11.083 13.749,18.568 7.868,12.237 4.66,12.45 6.023,14.484 2.586,11.201 4.057,18.541 4.379,21.534 1.152,21.629 -3.226,22.673 -7.891,24.3 -9.55,20.476 -14.567,-9.877"
   id="path14"
   style="opacity:0.5;fill:#fec145" />
			<path
   d="m 636.06763,56.525 9.5,-4.5 16.5,-33 21,30.5 16.5,19 19.5,15 17.5,9.5 25,7.5 0,38.5 0,25 0,25 0,43.5 0,14.5 0,19 0,25 0,33.5 -74.5,0 3,-32 4,-26 -2.341,-19.019 -1.659,-13.481 -4,-32.5 -5,-32.5 -3.5,-21 -6,-17.5 -5.186,-12.906 -15.064,-29.344 -7.742,-16.119"
   id="path16"
   style="opacity:0.51000001;fill:#f06465" />
			<path
   d="m 887.069,56.525 -9.5,-4.5 -16.5,-33 -21,30.5 -16.5,19 -19.5,15 -17.5,9.5 -25,7.5 0,38.5 0,25 0,25 0,43.5 0,14.5 0,19 0,25 0,33.5 74.5,0 -3,-32 -4,-26 2.341,-19.019 1.659,-13.481 4,-32.5 5,-32.5 3.5,-21 6,-17.5 5.186,-12.906 15.064,-29.344 7.743,-16.119"
   id="path18"
   style="opacity:0.51000001;fill:#f06465" />
			<path
   d="m 430.5,28.276 0,10.5 0,19 0,24 0,13.5 0,14.5 0,19.834 0.583,15.701 0.917,29.715 2.102,32.495 1.398,22.755 1,19.5 0,15.5 -1.673,22.256 -3.327,37.244 43,1.497 42.5,-2.497 -6,-37.5 -1.5,-18.5 0.594,-17.058 2.406,-18.942 4.642,-23.829 6.367,-29.102 10.991,-30.569 11.5,-18 16.5,-19.5 17,-16 -12,-16 -12.5,-25 -15,-36.5 -13.907,4.836 -15.093,3.164 -35.5,3.5 -28.985,0.035"
   id="path20"
   style="opacity:0.5;fill:#8cd4ec" />
			<path
   d="m 1093.316,27.259 0.142,10.498 0.255,18.999 0.322,23.998 0.181,13.499 0.195,14.498 0.266,19.833 -0.372,15.707 -0.519,29.725 -1.665,32.519 -1.094,22.773 -0.737,19.512 0.208,15.497 1.971,22.232 3.827,37.197 -42.976,2.074 -42.529,-1.927 5.496,-37.577 1.252,-18.519 -0.823,-17.049 -2.66,-18.907 -4.961,-23.764 -6.758,-29.015 -11.399,-30.418 -11.742,-17.845 -16.76,-19.276 -17.213,-15.771 11.784,-16.159 12.164,-25.166 14.508,-36.697 13.97,4.649 15.134,2.96 35.544,3.024 28.984,-0.355"
   id="path22"
   style="opacity:0.5;fill:#8cd4ec" />
		
		
			<path
   d="m 546.318,140.964 24.928,-5.504 14.09,-11.538 6.518,-34.844 7.359,-10.103 15.169,12.041 13.902,10.808 29.008,23.196 8.973,11.28 7.467,15.648 3.289,20.706 -5.326,30.577 -5.371,27.327 -2.678,17.694 -2.548,20.133 2.198,32.222 4.235,34.945 -57.977,2.054 -55.012,-0.486 6.595,-39.229 3.503,-25.917 -2.591,-24.467 -3.788,-20.699 -2.823,-20.989 -3.589,-26.677"
   id="path28"
   style="opacity:0.5;fill:#5d6c5d" />
			<path
   d="m 976.021,140.964 -24.927,-5.504 -14.09,-11.538 -6.518,-34.844 -7.359,-10.103 -15.169,12.041 -13.902,10.808 -29.008,23.196 -8.973,11.28 -7.468,15.648 -3.288,20.706 5.326,30.577 5.371,27.327 2.676,17.694 2.55,20.133 -2.198,32.222 -4.235,34.945 57.977,2.054 55.012,-0.486 -6.595,-39.229 -3.503,-25.917 2.591,-24.466 3.788,-20.7 2.823,-20.989 3.589,-26.677"
   id="path30"
   style="opacity:0.5;fill:#5d6c5d" />
		<path
   d="m 1128.5,10.92 0,60.502 0,122.5 0,118.5 0,34.5 0,37.67 0,54.83 0,52.5 56,0 53,0 62.5,0 68.5,0 66.5,0 64.5,0 0,-51.5 0,-55.83 0,-37.17 0,-35 0,-118 0,-183.5 -64.75,0 -66.75,0 -64.75,0 -67.25,0 -56.602,0"
   id="path32"
   style="opacity:0.5;fill:#5d6c5d" />
		
<path
   style="opacity:0.5;fill:#5d6c5d"
   id="path3002"
   d="m 1518.6838,10.92 0,60.502 0,122.5 0,118.5 0,34.5 0,37.67 0,54.83 0,52.5 56,0 53,0 62.5,0 68.5,0 66.5,0 64.5,0 0,-51.5 0,-55.83 0,-37.17 0,-35 0,-118 0,-183.5 -64.75,0 -66.75,0 -64.75,0 -67.25,0 -56.602,0"
   inkscape:connector-curvature="0" /></svg>