####
#
# OBJ File Generated by Meshlab
#
####
# Object trans_big_flag.obj
#
# Vertices: 81
# Faces: 128
#
####
vn 0.000000 0.000000 1.570796
v 0.000000 0.000000 0.000000 0.752941 0.752941 0.752941
vn 0.000000 0.000000 1.570796
v 1.000000 0.000000 0.000000 0.752941 0.752941 0.752941
vn 0.000000 0.000000 1.570796
v 1.000000 1.000000 0.000000 0.752941 0.752941 0.752941
vn 0.000000 0.000000 1.570796
v 0.000000 1.000000 0.000000 0.752941 0.752941 0.752941
vn 0.000000 0.000000 6.283185
v 0.500000 0.500000 0.000000 0.752941 0.752941 0.752941
vn 0.000000 0.000000 3.141593
v 0.500000 1.000000 0.000000 0.752941 0.752941 0.752941
vn 0.000000 0.000000 3.141593
v 0.500000 0.000000 0.000000 0.752941 0.752941 0.752941
vn 0.000000 0.000000 3.141593
v 1.000000 0.500000 0.000000 0.752941 0.752941 0.752941
vn 0.000000 0.000000 3.141593
v 0.000000 0.500000 0.000000 0.752941 0.752941 0.752941
vn 0.000000 0.000000 6.283185
v 0.750000 0.750000 0.000000 0.752941 0.752941 0.752941
vn 0.000000 0.000000 6.283185
v 0.750000 0.250000 0.000000 0.752941 0.752941 0.752941
vn 0.000000 0.000000 6.283185
v 0.250000 0.750000 0.000000 0.752941 0.752941 0.752941
vn 0.000000 0.000000 6.283185
v 0.250000 0.250000 0.000000 0.752941 0.752941 0.752941
vn 0.000000 0.000000 6.283185
v 0.250000 0.500000 0.000000 0.752941 0.752941 0.752941
vn 0.000000 0.000000 3.141593
v 0.000000 0.250000 0.000000 0.752941 0.752941 0.752941
vn 0.000000 0.000000 3.141593
v 0.000000 0.750000 0.000000 0.752941 0.752941 0.752941
vn 0.000000 0.000000 3.141593
v 1.000000 0.750000 0.000000 0.752941 0.752941 0.752941
vn 0.000000 0.000000 6.283185
v 0.750000 0.500000 0.000000 0.752941 0.752941 0.752941
vn 0.000000 0.000000 6.283185
v 0.500000 0.250000 0.000000 0.752941 0.752941 0.752941
vn 0.000000 0.000000 6.283185
v 0.500000 0.750000 0.000000 0.752941 0.752941 0.752941
vn 0.000000 0.000000 3.141593
v 0.750000 1.000000 0.000000 0.752941 0.752941 0.752941
vn 0.000000 0.000000 3.141593
v 0.250000 1.000000 0.000000 0.752941 0.752941 0.752941
vn 0.000000 0.000000 3.141593
v 0.250000 0.000000 0.000000 0.752941 0.752941 0.752941
vn 0.000000 0.000000 3.141593
v 0.750000 0.000000 0.000000 0.752941 0.752941 0.752941
vn 0.000000 0.000000 3.141593
v 1.000000 0.250000 0.000000 0.752941 0.752941 0.752941
vn 0.000000 0.000000 6.283185
v 0.875000 0.375000 0.000000 0.752941 0.752941 0.752941
vn 0.000000 0.000000 6.283185
v 0.875000 0.625000 0.000000 0.752941 0.752941 0.752941
vn 0.000000 0.000000 6.283185
v 0.625000 0.625000 0.000000 0.752941 0.752941 0.752941
vn 0.000000 0.000000 6.283185
v 0.875000 0.875000 0.000000 0.752941 0.752941 0.752941
vn 0.000000 0.000000 6.283185
v 0.375000 0.125000 0.000000 0.752941 0.752941 0.752941
vn 0.000000 0.000000 6.283185
v 0.625000 0.875000 0.000000 0.752941 0.752941 0.752941
vn 0.000000 0.000000 6.283185
v 0.625000 0.125000 0.000000 0.752941 0.752941 0.752941
vn 0.000000 0.000000 6.283185
v 0.375000 0.875000 0.000000 0.752941 0.752941 0.752941
vn 0.000000 0.000000 6.283185
v 0.875000 0.125000 0.000000 0.752941 0.752941 0.752941
vn 0.000000 0.000000 6.283185
v 0.375000 0.625000 0.000000 0.752941 0.752941 0.752941
vn 0.000000 0.000000 6.283185
v 0.125000 0.875000 0.000000 0.752941 0.752941 0.752941
vn 0.000000 0.000000 6.283185
v 0.125000 0.375000 0.000000 0.752941 0.752941 0.752941
vn 0.000000 0.000000 6.283185
v 0.375000 0.375000 0.000000 0.752941 0.752941 0.752941
vn 0.000000 0.000000 6.283185
v 0.125000 0.125000 0.000000 0.752941 0.752941 0.752941
vn 0.000000 0.000000 6.283185
v 0.125000 0.625000 0.000000 0.752941 0.752941 0.752941
vn 0.000000 0.000000 6.283185
v 0.625000 0.375000 0.000000 0.752941 0.752941 0.752941
vn 0.000000 0.000000 6.283185
v 0.875000 0.750000 0.000000 0.752941 0.752941 0.752941
vn 0.000000 0.000000 3.141593
v 0.000000 0.375000 0.000000 0.752941 0.752941 0.752941
vn 0.000000 0.000000 6.283185
v 0.250000 0.375000 0.000000 0.752941 0.752941 0.752941
vn 0.000000 0.000000 6.283185
v 0.125000 0.500000 0.000000 0.752941 0.752941 0.752941
vn 0.000000 0.000000 6.283185
v 0.375000 0.500000 0.000000 0.752941 0.752941 0.752941
vn 0.000000 0.000000 6.283185
v 0.875000 0.250000 0.000000 0.752941 0.752941 0.752941
vn 0.000000 0.000000 6.283185
v 0.250000 0.625000 0.000000 0.752941 0.752941 0.752941
vn 0.000000 0.000000 6.283185
v 0.125000 0.250000 0.000000 0.752941 0.752941 0.752941
vn 0.000000 0.000000 6.283185
v 0.125000 0.750000 0.000000 0.752941 0.752941 0.752941
vn 0.000000 0.000000 6.283185
v 0.750000 0.125000 0.000000 0.752941 0.752941 0.752941
vn 0.000000 0.000000 6.283185
v 0.250000 0.125000 0.000000 0.752941 0.752941 0.752941
vn 0.000000 0.000000 6.283185
v 0.250000 0.875000 0.000000 0.752941 0.752941 0.752941
vn 0.000000 0.000000 6.283185
v 0.750000 0.875000 0.000000 0.752941 0.752941 0.752941
vn 0.000000 0.000000 6.283185
v 0.625000 0.750000 0.000000 0.752941 0.752941 0.752941
vn 0.000000 0.000000 6.283185
v 0.375000 0.250000 0.000000 0.752941 0.752941 0.752941
vn 0.000000 0.000000 6.283185
v 0.750000 0.375000 0.000000 0.752941 0.752941 0.752941
vn 0.000000 0.000000 3.141593
v 0.000000 0.125000 0.000000 0.752941 0.752941 0.752941
vn 0.000000 0.000000 3.141593
v 1.000000 0.375000 0.000000 0.752941 0.752941 0.752941
vn 0.000000 0.000000 3.141593
v 0.000000 0.625000 0.000000 0.752941 0.752941 0.752941
vn 0.000000 0.000000 3.141593
v 1.000000 0.625000 0.000000 0.752941 0.752941 0.752941
vn 0.000000 0.000000 3.141593
v 1.000000 0.875000 0.000000 0.752941 0.752941 0.752941
vn 0.000000 0.000000 6.283185
v 0.625000 0.500000 0.000000 0.752941 0.752941 0.752941
vn 0.000000 0.000000 6.283185
v 0.875000 0.500000 0.000000 0.752941 0.752941 0.752941
vn 0.000000 0.000000 6.283185
v 0.750000 0.625000 0.000000 0.752941 0.752941 0.752941
vn 0.000000 0.000000 6.283185
v 0.500000 0.375000 0.000000 0.752941 0.752941 0.752941
vn 0.000000 0.000000 6.283185
v 0.500000 0.125000 0.000000 0.752941 0.752941 0.752941
vn 0.000000 0.000000 6.283185
v 0.625000 0.250000 0.000000 0.752941 0.752941 0.752941
vn 0.000000 0.000000 6.283185
v 0.500000 0.625000 0.000000 0.752941 0.752941 0.752941
vn 0.000000 0.000000 3.141593
v 0.000000 0.875000 0.000000 0.752941 0.752941 0.752941
vn 0.000000 0.000000 3.141593
v 1.000000 0.125000 0.000000 0.752941 0.752941 0.752941
vn 0.000000 0.000000 3.141593
v 0.875000 0.000000 0.000000 0.752941 0.752941 0.752941
vn 0.000000 0.000000 3.141593
v 0.625000 0.000000 0.000000 0.752941 0.752941 0.752941
vn 0.000000 0.000000 3.141593
v 0.375000 0.000000 0.000000 0.752941 0.752941 0.752941
vn 0.000000 0.000000 3.141593
v 0.125000 0.000000 0.000000 0.752941 0.752941 0.752941
vn 0.000000 0.000000 3.141593
v 0.125000 1.000000 0.000000 0.752941 0.752941 0.752941
vn 0.000000 0.000000 3.141593
v 0.375000 1.000000 0.000000 0.752941 0.752941 0.752941
vn 0.000000 0.000000 3.141593
v 0.625000 1.000000 0.000000 0.752941 0.752941 0.752941
vn 0.000000 0.000000 3.141593
v 0.875000 1.000000 0.000000 0.752941 0.752941 0.752941
vn 0.000000 0.000000 6.283185
v 0.375000 0.750000 0.000000 0.752941 0.752941 0.752941
vn 0.000000 0.000000 6.283185
v 0.500000 0.875000 0.000000 0.752941 0.752941 0.752941
# 81 vertices, 0 vertices normals

f 14//14 48//48 40//40
f 22//22 53//53 33//33
f 78//78 6//6 31//31
f 14//14 44//44 38//38
f 19//19 66//66 38//38
f 7//7 67//67 30//30
f 74//74 7//7 30//30
f 54//54 10//10 29//29
f 19//19 56//56 30//30
f 23//23 52//52 39//39
f 76//76 4//4 36//36
f 55//55 10//10 31//31
f 50//50 12//12 36//36
f 3//3 79//79 29//29
f 42//42 10//10 27//27
f 52//52 13//13 39//39
f 24//24 51//51 32//32
f 75//75 23//23 39//39
f 68//68 11//11 41//41
f 60//60 9//9 40//40
f 18//18 63//63 41//41
f 25//25 47//47 34//34
f 20//20 80//80 35//35
f 71//71 25//25 34//34
f 72//72 2//2 34//34
f 20//20 55//55 31//31
f 19//19 68//68 41//41
f 16//16 50//50 36//36
f 18//18 65//65 28//28
f 21//21 54//54 29//29
f 58//58 1//1 39//39
f 46//46 5//5 35//35
f 63//63 5//5 41//41
f 64//64 18//18 26//26
f 8//8 64//64 26//26
f 62//62 3//3 29//29
f 61//61 17//17 27//27
f 65//65 10//10 28//28
f 73//73 24//24 32//32
f 51//51 11//11 32//32
f 77//77 22//22 33//33
f 53//53 12//12 33//33
f 66//66 5//5 38//38
f 67//67 19//19 30//30
f 80//80 12//12 35//35
f 79//79 21//21 29//29
f 14//14 46//46 35//35
f 70//70 16//16 36//36
f 9//9 45//45 40//40
f 47//47 11//11 34//34
f 15//15 49//49 37//37
f 69//69 5//5 28//28
f 44//44 13//13 38//38
f 43//43 15//15 37//37
f 9//9 43//43 37//37
f 45//45 14//14 40//40
f 57//57 11//11 26//26
f 48//48 12//12 40//40
f 59//59 8//8 26//26
f 49//49 13//13 37//37
f 17//17 62//62 29//29
f 56//56 13//13 30//30
f 10//10 42//42 29//29
f 42//42 17//17 29//29
f 17//17 42//42 27//27
f 13//13 44//44 37//37
f 44//44 14//14 37//37
f 14//14 45//45 37//37
f 45//45 9//9 37//37
f 5//5 46//46 38//38
f 46//46 14//14 38//38
f 11//11 47//47 26//26
f 47//47 25//25 26//26
f 12//12 48//48 35//35
f 48//48 14//14 35//35
f 13//13 49//49 39//39
f 49//49 15//15 39//39
f 12//12 50//50 40//40
f 50//50 16//16 40//40
f 11//11 51//51 34//34
f 51//51 24//24 34//34
f 13//13 52//52 30//30
f 52//52 23//23 30//30
f 12//12 53//53 36//36
f 53//53 22//22 36//36
f 10//10 54//54 31//31
f 54//54 21//21 31//31
f 10//10 55//55 28//28
f 55//55 20//20 28//28
f 13//13 56//56 38//38
f 56//56 19//19 38//38
f 11//11 57//57 41//41
f 57//57 18//18 41//41
f 18//18 57//57 26//26
f 15//15 58//58 39//39
f 25//25 59//59 26//26
f 16//16 60//60 40//40
f 8//8 61//61 27//27
f 5//5 63//63 28//28
f 63//63 18//18 28//28
f 18//18 64//64 27//27
f 64//64 8//8 27//27
f 10//10 65//65 27//27
f 65//65 18//18 27//27
f 5//5 66//66 41//41
f 66//66 19//19 41//41
f 19//19 67//67 32//32
f 67//67 7//7 32//32
f 11//11 68//68 32//32
f 68//68 19//19 32//32
f 5//5 69//69 35//35
f 69//69 20//20 35//35
f 20//20 69//69 28//28
f 4//4 70//70 36//36
f 2//2 71//71 34//34
f 24//24 72//72 34//34
f 7//7 73//73 32//32
f 23//23 74//74 30//30
f 1//1 75//75 39//39
f 22//22 76//76 36//36
f 6//6 77//77 33//33
f 21//21 78//78 31//31
f 12//12 80//80 33//33
f 80//80 20//20 33//33
f 20//20 81//81 33//33
f 81//81 6//6 33//33
f 6//6 81//81 31//31
f 81//81 20//20 31//31
# 128 faces, 0 coords texture

# End of File
