# Blender v2.81 (sub 16) OBJ File: 'work.blend'
# www.blender.org
mtllib arror_man.mtl
v -0.262331 -0.053500 1.398669
v 0.237651 -0.053500 1.402929
v 0.237651 0.046500 1.402929
v -0.262331 0.046500 1.398669
v -0.261851 0.046500 1.342271
v 0.238131 0.046500 1.346531
v 0.238131 -0.053500 1.346531
v -0.261851 -0.053500 1.342271
vt 0.000000 1.000000
vt 0.000000 0.000000
vt 1.000000 0.000000
vt 1.000000 1.000000
vt 0.000000 1.000000
vt 0.000000 0.000000
vt 1.000000 0.000000
vt 1.000000 1.000000
vt 0.000000 0.000000
vt 1.000000 0.000000
vt 0.000000 1.000000
vt 1.000000 1.000000
vt 0.000000 1.000000
vt 0.000000 0.000000
vt 1.000000 0.000000
vt 1.000000 1.000000
vt 0.000000 1.000000
vt 0.000000 0.000000
vt 1.000000 0.000000
vt 1.000000 1.000000
vn -0.0085 0.0000 1.0000
vn 0.0085 0.0000 -1.0000
vn -1.0000 0.0000 -0.0085
vn 1.0000 0.0000 0.0085
vn 0.0000 -1.0000 0.0000
vn 0.0000 1.0000 0.0000
usemtl Standard1
s 1
f 1/1/1 2/2/1 3/3/1 4/4/1
f 5/5/2 6/6/2 7/7/2 8/8/2
f 5/5/3 8/9/3 1/10/3 4/4/3
f 7/11/4 6/6/4 3/3/4 2/12/4
f 8/13/5 7/14/5 2/15/5 1/16/5
f 4/17/6 3/18/6 6/19/6 5/20/6
v -0.262777 -0.053500 1.084317
v 0.237205 -0.053500 1.088577
v 0.237205 0.046500 1.088577
v -0.262777 0.046500 1.084317
v -0.261405 0.046500 0.923223
v 0.238577 0.046500 0.927483
v 0.238577 -0.053500 0.927483
v -0.261405 -0.053500 0.923223
vt 0.000000 1.000000
vt 0.000000 0.000000
vt 1.000000 0.000000
vt 1.000000 1.000000
vt 0.000000 1.000000
vt 0.000000 0.000000
vt 1.000000 0.000000
vt 1.000000 1.000000
vt 0.000000 0.000000
vt 1.000000 0.000000
vt 0.000000 1.000000
vt 1.000000 1.000000
vt 0.000000 1.000000
vt 0.000000 0.000000
vt 1.000000 0.000000
vt 1.000000 1.000000
vt 0.000000 1.000000
vt 0.000000 0.000000
vt 1.000000 0.000000
vt 1.000000 1.000000
vn -0.0085 0.0000 1.0000
vn 0.0085 0.0000 -1.0000
vn -1.0000 0.0000 -0.0085
vn 1.0000 0.0000 0.0085
vn -0.0000 -1.0000 0.0000
vn 0.0000 1.0000 -0.0000
usemtl Standard1
s 1
f 9/21/7 10/22/7 11/23/7 12/24/7
f 13/25/8 14/26/8 15/27/8 16/28/8
f 13/25/9 16/29/9 9/30/9 12/24/9
f 15/31/10 14/26/10 11/23/10 10/32/10
f 16/33/11 15/34/11 10/35/11 9/36/11
f 12/37/12 11/38/12 14/39/12 13/40/12
v -0.263319 -0.053500 0.887315
v 0.236663 -0.053500 0.891575
v 0.236663 0.046500 0.891575
v -0.263319 0.046500 0.887315
v -0.260863 0.046500 0.599025
v 0.239119 0.046500 0.603285
v 0.239119 -0.053500 0.603285
v -0.260863 -0.053500 0.599025
vt 0.000000 1.000000
vt 0.000000 0.000000
vt 1.000000 0.000000
vt 1.000000 1.000000
vt 0.000000 1.000000
vt 0.000000 0.000000
vt 1.000000 0.000000
vt 1.000000 1.000000
vt 0.000000 0.000000
vt 1.000000 0.000000
vt 0.000000 1.000000
vt 1.000000 1.000000
vt 0.000000 1.000000
vt 0.000000 0.000000
vt 1.000000 0.000000
vt 1.000000 1.000000
vt 0.000000 1.000000
vt 0.000000 0.000000
vt 1.000000 0.000000
vt 1.000000 1.000000
vn -0.0085 0.0000 1.0000
vn 0.0085 0.0000 -1.0000
vn -1.0000 0.0000 -0.0085
vn 1.0000 0.0000 0.0085
vn -0.0000 -1.0000 0.0000
vn 0.0000 1.0000 -0.0000
usemtl Standard1
s 1
f 17/41/13 18/42/13 19/43/13 20/44/13
f 21/45/14 22/46/14 23/47/14 24/48/14
f 21/45/15 24/49/15 17/50/15 20/44/15
f 23/51/16 22/46/16 19/43/16 18/52/16
f 24/53/17 23/54/17 18/55/17 17/56/17
f 20/57/18 19/58/18 22/59/18 21/60/18
v -0.500000 -0.050000 0.564600
v 0.500000 -0.050000 0.564600
v 0.500000 0.050000 0.564600
v -0.500000 0.050000 0.564600
v -0.000517 0.050000 0.064600
v -0.000517 -0.050000 0.064600
vt 0.000000 1.000000
vt 0.000000 0.000000
vt 1.000000 0.000000
vt 1.000000 1.000000
vt 0.000000 0.000000
vt 1.000000 0.000000
vt 1.000000 1.000000
vt 0.000000 1.000000
vt 1.000000 0.000000
vt 1.000000 1.000000
vt 0.000000 1.000000
vt 0.000000 0.000000
vt 0.000000 1.000000
vt 1.000000 0.000000
vt 1.000000 1.000000
vn 0.0000 0.0000 1.0000
vn -0.7075 0.0000 -0.7067
vn 0.7067 0.0000 -0.7075
vn 0.0000 1.0000 -0.0000
vn 0.0000 -1.0000 0.0000
usemtl Standard1
s 1
f 25/61/19 26/62/19 27/63/19 28/64/19
f 25/61/20 28/65/20 29/66/20 30/67/20
f 27/68/21 26/62/21 30/69/21 29/70/21
f 28/71/22 27/72/22 29/66/22
f 30/73/23 26/74/23 25/75/23
v -0.262331 -0.053500 1.491069
v 0.237651 -0.053500 1.495329
v 0.237651 0.046500 1.495329
v -0.262331 0.046500 1.491069
v -0.261851 0.046500 1.434671
v 0.238131 0.046500 1.438931
v 0.238131 -0.053500 1.438931
v -0.261851 -0.053500 1.434671
vt 0.000000 1.000000
vt 0.000000 0.000000
vt 1.000000 0.000000
vt 1.000000 1.000000
vt 0.000000 1.000000
vt 0.000000 0.000000
vt 1.000000 0.000000
vt 1.000000 1.000000
vt 0.000000 0.000000
vt 1.000000 0.000000
vt 0.000000 1.000000
vt 1.000000 1.000000
vt 0.000000 1.000000
vt 0.000000 0.000000
vt 1.000000 0.000000
vt 1.000000 1.000000
vt 0.000000 1.000000
vt 0.000000 0.000000
vt 1.000000 0.000000
vt 1.000000 1.000000
vn -0.0085 0.0000 1.0000
vn 0.0085 0.0000 -1.0000
vn -1.0000 0.0000 -0.0085
vn 1.0000 0.0000 0.0085
vn 0.0000 -1.0000 0.0000
vn -0.0000 1.0000 0.0000
usemtl Standard1
s 1
f 31/76/24 32/77/24 33/78/24 34/79/24
f 35/80/25 36/81/25 37/82/25 38/83/25
f 35/80/26 38/84/26 31/85/26 34/79/26
f 37/86/27 36/81/27 33/78/27 32/87/27
f 38/88/28 37/89/28 32/90/28 31/91/28
f 34/92/29 33/93/29 36/94/29 35/95/29
v -0.262154 -0.053500 1.541720
v 0.237828 -0.053500 1.545980
v 0.237828 0.046500 1.545980
v -0.262154 0.046500 1.541720
v -0.262028 0.046500 1.527020
v 0.237954 0.046500 1.531280
v 0.237954 -0.053500 1.531280
v -0.262028 -0.053500 1.527020
vt 0.000000 1.000000
vt 0.000000 0.000000
vt 1.000000 0.000000
vt 1.000000 1.000000
vt 0.000000 1.000000
vt 0.000000 0.000000
vt 1.000000 0.000000
vt 1.000000 1.000000
vt 0.000000 0.000000
vt 1.000000 0.000000
vt 0.000000 1.000000
vt 1.000000 1.000000
vt 0.000000 1.000000
vt 0.000000 0.000000
vt 1.000000 0.000000
vt 1.000000 1.000000
vt 0.000000 1.000000
vt 0.000000 0.000000
vt 1.000000 0.000000
vt 1.000000 1.000000
vn -0.0085 0.0000 1.0000
vn 0.0085 0.0000 -1.0000
vn -1.0000 0.0000 -0.0086
vn 1.0000 0.0000 0.0086
vn 0.0000 -1.0000 0.0000
vn 0.0000 1.0000 0.0000
usemtl Standard2
s 1
f 39/96/30 40/97/30 41/98/30 42/99/30
f 43/100/31 44/101/31 45/102/31 46/103/31
f 43/100/32 46/104/32 39/105/32 42/99/32
f 45/106/33 44/101/33 41/98/33 40/107/33
f 46/108/34 45/109/34 40/110/34 39/111/34
f 42/112/35 41/113/35 44/114/35 43/115/35
v -0.262511 -0.053500 1.223018
v 0.237470 -0.053500 1.227278
v 0.237470 0.046500 1.227278
v -0.262511 0.046500 1.223018
v -0.261670 0.046500 1.124322
v 0.238311 0.046500 1.128582
v 0.238311 -0.053500 1.128582
v -0.261670 -0.053500 1.124322
vt 0.000000 1.000000
vt 0.000000 0.000000
vt 1.000000 0.000000
vt 1.000000 1.000000
vt 0.000000 1.000000
vt 0.000000 0.000000
vt 1.000000 0.000000
vt 1.000000 1.000000
vt 0.000000 0.000000
vt 1.000000 0.000000
vt 0.000000 1.000000
vt 1.000000 1.000000
vt 0.000000 1.000000
vt 0.000000 0.000000
vt 1.000000 0.000000
vt 1.000000 1.000000
vt 0.000000 1.000000
vt 0.000000 0.000000
vt 1.000000 0.000000
vt 1.000000 1.000000
vn -0.0085 0.0000 1.0000
vn 0.0085 0.0000 -1.0000
vn -1.0000 0.0000 -0.0085
vn 1.0000 0.0000 0.0085
vn -0.0000 -1.0000 0.0000
vn 0.0000 1.0000 -0.0000
usemtl Standard1
s 1
f 47/116/36 48/117/36 49/118/36 50/119/36
f 51/120/37 52/121/37 53/122/37 54/123/37
f 51/120/38 54/124/38 47/125/38 50/119/38
f 53/126/39 52/121/39 49/118/39 48/127/39
f 54/128/40 53/129/40 48/130/40 47/131/40
f 50/132/41 49/133/41 52/134/41 51/135/41
v -0.262331 -0.053500 1.313669
v 0.237651 -0.053500 1.317929
v 0.237651 0.046500 1.317929
v -0.262331 0.046500 1.313669
v -0.261851 0.046500 1.257271
v 0.238131 0.046500 1.261531
v 0.238131 -0.053500 1.261531
v -0.261851 -0.053500 1.257271
vt 0.000000 1.000000
vt 0.000000 0.000000
vt 1.000000 0.000000
vt 1.000000 1.000000
vt 0.000000 1.000000
vt 0.000000 0.000000
vt 1.000000 0.000000
vt 1.000000 1.000000
vt 0.000000 0.000000
vt 1.000000 0.000000
vt 0.000000 1.000000
vt 1.000000 1.000000
vt 0.000000 1.000000
vt 0.000000 0.000000
vt 1.000000 0.000000
vt 1.000000 1.000000
vt 0.000000 1.000000
vt 0.000000 0.000000
vt 1.000000 0.000000
vt 1.000000 1.000000
vn -0.0085 0.0000 1.0000
vn 0.0085 0.0000 -1.0000
vn -1.0000 0.0000 -0.0085
vn 1.0000 0.0000 0.0085
vn 0.0000 -1.0000 0.0000
vn 0.0000 1.0000 0.0000
usemtl Standard1
s 1
f 55/136/42 56/137/42 57/138/42 58/139/42
f 59/140/43 60/141/43 61/142/43 62/143/43
f 59/140/44 62/144/44 55/145/44 58/139/44
f 61/146/45 60/141/45 57/138/45 56/147/45
f 62/148/46 61/149/46 56/150/46 55/151/46
f 58/152/47 57/153/47 60/154/47 59/155/47
