# Blender v2.74 (sub 0) OBJ File: ''
# www.blender.org
mtllib arrow.mtl
o Box5
v 0.262331 1.398669 -0.053500
v 0.262331 1.398669 0.046500
v -0.237651 1.402929 -0.053500
v -0.237651 1.402929 0.046500
v 0.261851 1.342271 0.046500
v 0.261851 1.342271 -0.053500
v -0.238131 1.346531 0.046500
v -0.238131 1.346531 -0.053500
vt 0.000000 1.000000
vt 0.000000 0.000000
vt 1.000000 0.000000
vt 1.000000 1.000000
vn 0.008500 1.000000 0.000000
vn -0.008500 -1.000000 0.000000
vn 1.000000 -0.008500 0.000000
vn -1.000000 0.008500 0.000000
vn -0.000000 0.000000 -1.000000
vn 0.000000 0.000000 1.000000
usemtl Standard1
s 1
f 1/1/1 3/2/1 4/3/1 2/4/1
f 5/1/2 7/2/2 8/3/2 6/4/2
f 5/1/3 6/2/3 1/3/3 2/4/3
f 8/1/4 7/2/4 4/3/4 3/4/4
f 6/1/5 8/2/5 3/3/5 1/4/5
f 2/1/6 4/2/6 7/3/6 5/4/6
o Box2
v 0.262777 1.084317 -0.053500
v 0.262777 1.084317 0.046500
v -0.237205 1.088577 -0.053500
v -0.237205 1.088577 0.046500
v 0.261405 0.923223 0.046500
v 0.261405 0.923223 -0.053500
v -0.238577 0.927483 0.046500
v -0.238577 0.927483 -0.053500
vt 0.000000 1.000000
vt 0.000000 0.000000
vt 1.000000 0.000000
vt 1.000000 1.000000
vn 0.008500 1.000000 0.000000
vn -0.008500 -1.000000 0.000000
vn 1.000000 -0.008500 0.000000
vn -1.000000 0.008500 0.000000
vn 0.000000 0.000000 -1.000000
vn 0.000000 0.000000 1.000000
usemtl Standard1
s 1
f 9/5/7 11/6/7 12/7/7 10/8/7
f 13/5/8 15/6/8 16/7/8 14/8/8
f 13/5/9 14/6/9 9/7/9 10/8/9
f 16/5/10 15/6/10 12/7/10 11/8/10
f 14/5/11 16/6/11 11/7/11 9/8/11
f 10/5/12 12/6/12 15/7/12 13/8/12
o Box
v 0.263319 0.887315 -0.053500
v 0.263319 0.887315 0.046500
v -0.236663 0.891575 -0.053500
v -0.236663 0.891575 0.046500
v 0.260863 0.599025 0.046500
v 0.260863 0.599025 -0.053500
v -0.239119 0.603285 0.046500
v -0.239119 0.603285 -0.053500
vt 0.000000 1.000000
vt 0.000000 0.000000
vt 1.000000 0.000000
vt 1.000000 1.000000
vn 0.008500 1.000000 0.000000
vn -0.008500 -1.000000 0.000000
vn 1.000000 -0.008500 0.000000
vn -1.000000 0.008500 0.000000
vn 0.000000 0.000000 -1.000000
vn -0.000000 0.000000 1.000000
usemtl Standard1
s 1
f 17/9/13 19/10/13 20/11/13 18/12/13
f 21/9/14 23/10/14 24/11/14 22/12/14
f 21/9/15 22/10/15 17/11/15 18/12/15
f 24/9/16 23/10/16 20/11/16 19/12/16
f 22/9/17 24/10/17 19/11/17 17/12/17
f 18/9/18 20/10/18 23/11/18 21/12/18
o Box1
v 0.000517 0.064600 0.050000
v 0.000517 0.064600 -0.050000
v 0.500000 0.564600 -0.050000
v 0.500000 0.564600 0.050000
v -0.500000 0.564600 -0.050000
v -0.500000 0.564600 0.050000
vt 0.000000 1.000000
vt 0.000000 0.000000
vt 1.000000 0.000000
vt 1.000000 1.000000
vn 0.000000 1.000000 0.000000
vn 0.707500 -0.706700 0.000000
vn -0.706700 -0.707500 0.000000
vn 0.000000 0.000000 1.000000
vn 0.000000 0.000000 -1.000000
usemtl Standard1
s 1
f 27/13/19 29/14/19 30/15/19 28/16/19
f 27/13/20 28/14/20 25/15/20 26/16/20
f 30/13/21 29/14/21 26/15/21 25/16/21
f 28/13/22 30/14/22 25/15/22
f 26/13/23 29/15/23 27/16/23
o Box6
v 0.262331 1.491069 -0.053500
v 0.262331 1.491069 0.046500
v -0.237651 1.495329 -0.053500
v -0.237651 1.495329 0.046500
v 0.261851 1.434671 0.046500
v 0.261851 1.434671 -0.053500
v -0.238131 1.438931 0.046500
v -0.238131 1.438931 -0.053500
vt 0.000000 1.000000
vt 0.000000 0.000000
vt 1.000000 0.000000
vt 1.000000 1.000000
vn 0.008500 1.000000 0.000000
vn -0.008500 -1.000000 0.000000
vn 1.000000 -0.008500 0.000000
vn -1.000000 0.008500 0.000000
vn -0.000000 0.000000 -1.000000
vn 0.000000 0.000000 1.000000
usemtl Standard1
s 1
f 31/17/24 33/18/24 34/19/24 32/20/24
f 35/17/25 37/18/25 38/19/25 36/20/25
f 35/17/26 36/18/26 31/19/26 32/20/26
f 38/17/27 37/18/27 34/19/27 33/20/27
f 36/17/28 38/18/28 33/19/28 31/20/28
f 32/17/29 34/18/29 37/19/29 35/20/29
o Box7
v 0.262154 1.541720 -0.053500
v 0.262154 1.541720 0.046500
v -0.237828 1.545980 -0.053500
v -0.237828 1.545980 0.046500
v 0.262028 1.527020 0.046500
v 0.262028 1.527020 -0.053500
v -0.237954 1.531280 0.046500
v -0.237954 1.531280 -0.053500
vt 0.000000 1.000000
vt 0.000000 0.000000
vt 1.000000 0.000000
vt 1.000000 1.000000
vn 0.008500 1.000000 0.000000
vn -0.008500 -1.000000 0.000000
vn 1.000000 -0.008500 0.000000
vn -1.000000 0.008500 0.000000
vn 0.000000 0.000000 -1.000000
vn -0.000000 0.000000 1.000000
usemtl Standard2
s 1
f 39/21/30 41/22/30 42/23/30 40/24/30
f 43/21/31 45/22/31 46/23/31 44/24/31
f 43/21/32 44/22/32 39/23/32 40/24/32
f 46/21/33 45/22/33 42/23/33 41/24/33
f 44/21/34 46/22/34 41/23/34 39/24/34
f 40/21/35 42/22/35 45/23/35 43/24/35
o Box3
v 0.262511 1.223018 -0.053500
v 0.262511 1.223018 0.046500
v -0.237470 1.227278 -0.053500
v -0.237470 1.227278 0.046500
v 0.261670 1.124322 0.046500
v 0.261670 1.124322 -0.053500
v -0.238311 1.128582 0.046500
v -0.238311 1.128582 -0.053500
vt 0.000000 1.000000
vt 0.000000 0.000000
vt 1.000000 0.000000
vt 1.000000 1.000000
vn 0.008500 1.000000 0.000000
vn -0.008500 -1.000000 0.000000
vn 1.000000 -0.008500 0.000000
vn -1.000000 0.008500 0.000000
vn 0.000000 0.000000 -1.000000
vn 0.000000 0.000000 1.000000
usemtl Standard1
s 1
f 47/25/36 49/26/36 50/27/36 48/28/36
f 51/25/37 53/26/37 54/27/37 52/28/37
f 51/25/38 52/26/38 47/27/38 48/28/38
f 54/25/39 53/26/39 50/27/39 49/28/39
f 52/25/40 54/26/40 49/27/40 47/28/40
f 48/25/41 50/26/41 53/27/41 51/28/41
o Box4
v 0.262331 1.313669 -0.053500
v 0.262331 1.313669 0.046500
v -0.237651 1.317929 -0.053500
v -0.237651 1.317929 0.046500
v 0.261851 1.257271 0.046500
v 0.261851 1.257271 -0.053500
v -0.238131 1.261531 0.046500
v -0.238131 1.261531 -0.053500
vt 0.000000 1.000000
vt 0.000000 0.000000
vt 1.000000 0.000000
vt 1.000000 1.000000
vn 0.008500 1.000000 0.000000
vn -0.008500 -1.000000 0.000000
vn 1.000000 -0.008500 0.000000
vn -1.000000 0.008500 0.000000
vn -0.000000 0.000000 -1.000000
vn 0.000000 0.000000 1.000000
usemtl Standard1
s 1
f 55/29/42 57/30/42 58/31/42 56/32/42
f 59/29/43 61/30/43 62/31/43 60/32/43
f 59/29/44 60/30/44 55/31/44 56/32/44
f 62/29/45 61/30/45 58/31/45 57/32/45
f 60/29/46 62/30/46 57/31/46 55/32/46
f 56/29/47 58/30/47 61/31/47 59/32/47
